<svg xmlns="http://www.w3.org/2000/svg" width="1180" height="610" viewBox="0 0 1180 610" role="img">
<title>Weekly Return Interval Forecast - DXG</title>
<desc>Actual min-max band vs walk-forward 8-week forecast band</desc>
<rect width="1180" height="610" fill="#fbfbf8"/>
<style>text{font-family:Inter,Segoe UI,Arial,sans-serif}.title{font-size:28px;font-weight:760;fill:#111827}.sub{font-size:15px;fill:#4b5563}.axis{font-size:12px;fill:#6b7280}.legend{font-size:14px;fill:#374151}.note{font-size:12px;fill:#6b7280}</style>
<text class="title" x="82" y="42">Weekly Return Interval Forecast - DXG</text>
<text class="sub" x="82" y="66">Actual min-max band vs walk-forward 8-week forecast band</text>
<line x1="82" y1="524.00" x2="1144" y2="524.00" stroke="#e5e7eb" stroke-width="1"/>
<text class="axis" x="68" y="528.00" text-anchor="end">-18.9%</text>
<line x1="82" y1="437.60" x2="1144" y2="437.60" stroke="#e5e7eb" stroke-width="1"/>
<text class="axis" x="68" y="441.60" text-anchor="end">-12.6%</text>
<line x1="82" y1="351.20" x2="1144" y2="351.20" stroke="#e5e7eb" stroke-width="1"/>
<text class="axis" x="68" y="355.20" text-anchor="end">-6.3%</text>
<line x1="82" y1="264.80" x2="1144" y2="264.80" stroke="#e5e7eb" stroke-width="1"/>
<text class="axis" x="68" y="268.80" text-anchor="end">-0.1%</text>
<line x1="82" y1="178.40" x2="1144" y2="178.40" stroke="#e5e7eb" stroke-width="1"/>
<text class="axis" x="68" y="182.40" text-anchor="end">6.2%</text>
<line x1="82" y1="92.00" x2="1144" y2="92.00" stroke="#e5e7eb" stroke-width="1"/>
<text class="axis" x="68" y="96.00" text-anchor="end">12.4%</text>
<line x1="82" y1="92" x2="82" y2="524" stroke="#9ca3af" stroke-width="1"/>
<line x1="82" y1="524" x2="1144" y2="524" stroke="#9ca3af" stroke-width="1"/>
<line x1="82" y1="263.67" x2="1144" y2="263.67" stroke="#374151" stroke-width="1.2" stroke-dasharray="4 6" opacity="0.55"/>
<line x1="82.00" y1="524" x2="82.00" y2="530" stroke="#9ca3af"/>
<text class="axis" x="82.00" y="550" text-anchor="middle" transform="rotate(-28 82.00 550)">Mar 08</text>
<line x1="230.19" y1="524" x2="230.19" y2="530" stroke="#9ca3af"/>
<text class="axis" x="230.19" y="550" text-anchor="middle" transform="rotate(-28 230.19 550)">Apr 19</text>
<line x1="378.37" y1="524" x2="378.37" y2="530" stroke="#9ca3af"/>
<text class="axis" x="378.37" y="550" text-anchor="middle" transform="rotate(-28 378.37 550)">May 31</text>
<line x1="526.56" y1="524" x2="526.56" y2="530" stroke="#9ca3af"/>
<text class="axis" x="526.56" y="550" text-anchor="middle" transform="rotate(-28 526.56 550)">Jul 12</text>
<line x1="674.74" y1="524" x2="674.74" y2="530" stroke="#9ca3af"/>
<text class="axis" x="674.74" y="550" text-anchor="middle" transform="rotate(-28 674.74 550)">Aug 23</text>
<line x1="822.93" y1="524" x2="822.93" y2="530" stroke="#9ca3af"/>
<text class="axis" x="822.93" y="550" text-anchor="middle" transform="rotate(-28 822.93 550)">Oct 04</text>
<line x1="971.12" y1="524" x2="971.12" y2="530" stroke="#9ca3af"/>
<text class="axis" x="971.12" y="550" text-anchor="middle" transform="rotate(-28 971.12 550)">Nov 15</text>
<line x1="1119.30" y1="524" x2="1119.30" y2="530" stroke="#9ca3af"/>
<text class="axis" x="1119.30" y="550" text-anchor="middle" transform="rotate(-28 1119.30 550)">Dec 27</text>
<line x1="1144.00" y1="524" x2="1144.00" y2="530" stroke="#9ca3af"/>
<text class="axis" x="1144.00" y="550" text-anchor="middle" transform="rotate(-28 1144.00 550)">Dec 31</text>
<polygon points="82.00,263.67 106.70,221.01 131.40,201.93 156.09,221.64 180.79,222.68 205.49,235.72 230.19,263.67 254.88,216.23 279.58,263.67 304.28,263.67 328.98,218.63 353.67,255.74 378.37,238.66 403.07,263.67 427.77,238.73 452.47,263.67 477.16,263.67 501.86,250.69 526.56,234.92 551.26,263.67 575.95,218.83 600.65,263.67 625.35,139.25 650.05,175.15 674.74,140.80 699.44,246.20 724.14,263.67 748.84,263.67 773.53,180.32 798.23,174.93 822.93,263.67 847.63,240.97 872.33,177.14 897.02,225.22 921.72,263.67 946.42,255.46 971.12,246.63 995.81,196.56 1020.51,223.08 1045.21,207.77 1069.91,263.67 1094.60,255.98 1119.30,263.67 1144.00,263.67 1144.00,281.14 1119.30,416.12 1094.60,271.36 1069.91,278.91 1045.21,299.67 1020.51,263.67 995.81,293.03 971.12,280.70 946.42,300.63 921.72,304.62 897.02,263.67 872.33,277.33 847.63,263.67 822.93,387.61 798.23,263.67 773.53,263.67 748.84,339.59 724.14,302.72 699.44,289.87 674.74,263.67 650.05,274.08 625.35,263.67 600.65,352.70 575.95,298.54 551.26,340.87 526.56,263.67 501.86,345.86 477.16,280.92 452.47,293.48 427.77,271.98 403.07,303.90 378.37,263.67 353.67,319.18 328.98,263.67 304.28,304.02 279.58,263.67 254.88,306.79 230.19,476.75 205.49,298.61 180.79,284.16 156.09,263.67 131.40,299.98 106.70,283.10 82.00,308.07" fill="#64748b" opacity="0.18"/>
<polygon points="82.00,248.62 106.70,248.62 131.40,248.86 156.09,241.14 180.79,235.88 205.49,230.76 230.19,229.57 254.88,230.95 279.58,230.82 304.28,230.82 328.98,236.15 353.67,238.24 378.37,242.50 403.07,244.50 427.77,247.99 452.47,244.87 477.16,250.80 501.86,250.80 526.56,249.18 551.26,251.22 575.95,252.21 600.65,249.73 625.35,249.73 650.05,237.30 674.74,226.23 699.44,210.87 724.14,210.31 748.84,213.90 773.53,213.90 798.23,209.09 822.93,198.00 847.63,213.55 872.33,221.78 897.02,226.32 921.72,223.70 946.42,223.70 971.12,222.67 995.81,230.96 1020.51,233.66 1045.21,228.59 1069.91,224.44 1094.60,235.26 1119.30,239.10 1144.00,239.10 1144.00,300.51 1119.30,286.57 1094.60,285.61 1069.91,285.41 1045.21,280.91 1020.51,296.41 995.81,292.74 971.12,290.61 946.42,295.48 921.72,295.24 897.02,298.52 872.33,296.81 847.63,298.11 822.93,282.62 798.23,293.75 773.53,298.10 748.84,298.26 724.14,293.38 699.44,300.38 674.74,302.54 650.05,304.96 625.35,306.00 600.65,299.90 575.95,295.54 551.26,292.83 526.56,292.83 501.86,287.60 477.16,285.45 452.47,287.11 427.77,312.71 403.07,312.04 378.37,314.61 353.67,307.67 328.98,312.21 304.28,309.59 279.58,315.14 254.88,309.75 230.19,290.00 205.49,285.63 180.79,283.54 156.09,285.84 131.40,284.89 106.70,282.46 82.00,285.21" fill="#14b8a6" opacity="0.22"/>
<path d="M 82.00 308.07 L 106.70 283.10 L 131.40 299.98 L 156.09 263.67 L 180.79 284.16 L 205.49 298.61 L 230.19 476.75 L 254.88 306.79 L 279.58 263.67 L 304.28 304.02 L 328.98 263.67 L 353.67 319.18 L 378.37 263.67 L 403.07 303.90 L 427.77 271.98 L 452.47 293.48 L 477.16 280.92 L 501.86 345.86 L 526.56 263.67 L 551.26 340.87 L 575.95 298.54 L 600.65 352.70 L 625.35 263.67 L 650.05 274.08 L 674.74 263.67 L 699.44 289.87 L 724.14 302.72 L 748.84 339.59 L 773.53 263.67 L 798.23 263.67 L 822.93 387.61 L 847.63 263.67 L 872.33 277.33 L 897.02 263.67 L 921.72 304.62 L 946.42 300.63 L 971.12 280.70 L 995.81 293.03 L 1020.51 263.67 L 1045.21 299.67 L 1069.91 278.91 L 1094.60 271.36 L 1119.30 416.12 L 1144.00 281.14" fill="none" stroke="#1f2937" stroke-width="2.8"/>
<path d="M 82.00 263.67 L 106.70 221.01 L 131.40 201.93 L 156.09 221.64 L 180.79 222.68 L 205.49 235.72 L 230.19 263.67 L 254.88 216.23 L 279.58 263.67 L 304.28 263.67 L 328.98 218.63 L 353.67 255.74 L 378.37 238.66 L 403.07 263.67 L 427.77 238.73 L 452.47 263.67 L 477.16 263.67 L 501.86 250.69 L 526.56 234.92 L 551.26 263.67 L 575.95 218.83 L 600.65 263.67 L 625.35 139.25 L 650.05 175.15 L 674.74 140.80 L 699.44 246.20 L 724.14 263.67 L 748.84 263.67 L 773.53 180.32 L 798.23 174.93 L 822.93 263.67 L 847.63 240.97 L 872.33 177.14 L 897.02 225.22 L 921.72 263.67 L 946.42 255.46 L 971.12 246.63 L 995.81 196.56 L 1020.51 223.08 L 1045.21 207.77 L 1069.91 263.67 L 1094.60 255.98 L 1119.30 263.67 L 1144.00 263.67" fill="none" stroke="#475569" stroke-width="2.8"/>
<path d="M 82.00 285.21 L 106.70 282.46 L 131.40 284.89 L 156.09 285.84 L 180.79 283.54 L 205.49 285.63 L 230.19 290.00 L 254.88 309.75 L 279.58 315.14 L 304.28 309.59 L 328.98 312.21 L 353.67 307.67 L 378.37 314.61 L 403.07 312.04 L 427.77 312.71 L 452.47 287.11 L 477.16 285.45 L 501.86 287.60 L 526.56 292.83 L 551.26 292.83 L 575.95 295.54 L 600.65 299.90 L 625.35 306.00 L 650.05 304.96 L 674.74 302.54 L 699.44 300.38 L 724.14 293.38 L 748.84 298.26 L 773.53 298.10 L 798.23 293.75 L 822.93 282.62 L 847.63 298.11 L 872.33 296.81 L 897.02 298.52 L 921.72 295.24 L 946.42 295.48 L 971.12 290.61 L 995.81 292.74 L 1020.51 296.41 L 1045.21 280.91 L 1069.91 285.41 L 1094.60 285.61 L 1119.30 286.57 L 1144.00 300.51" fill="none" stroke="#0f766e" stroke-width="3.2" stroke-dasharray="7 6"/>
<path d="M 82.00 248.62 L 106.70 248.62 L 131.40 248.86 L 156.09 241.14 L 180.79 235.88 L 205.49 230.76 L 230.19 229.57 L 254.88 230.95 L 279.58 230.82 L 304.28 230.82 L 328.98 236.15 L 353.67 238.24 L 378.37 242.50 L 403.07 244.50 L 427.77 247.99 L 452.47 244.87 L 477.16 250.80 L 501.86 250.80 L 526.56 249.18 L 551.26 251.22 L 575.95 252.21 L 600.65 249.73 L 625.35 249.73 L 650.05 237.30 L 674.74 226.23 L 699.44 210.87 L 724.14 210.31 L 748.84 213.90 L 773.53 213.90 L 798.23 209.09 L 822.93 198.00 L 847.63 213.55 L 872.33 221.78 L 897.02 226.32 L 921.72 223.70 L 946.42 223.70 L 971.12 222.67 L 995.81 230.96 L 1020.51 233.66 L 1045.21 228.59 L 1069.91 224.44 L 1094.60 235.26 L 1119.30 239.10 L 1144.00 239.10" fill="none" stroke="#10b981" stroke-width="3.2"/>
<circle cx="82.00" cy="308.07" r="3.2" fill="#1f2937"/>
<circle cx="131.40" cy="299.98" r="3.2" fill="#1f2937"/>
<circle cx="180.79" cy="284.16" r="3.2" fill="#1f2937"/>
<circle cx="230.19" cy="476.75" r="3.2" fill="#1f2937"/>
<circle cx="279.58" cy="263.67" r="3.2" fill="#1f2937"/>
<circle cx="328.98" cy="263.67" r="3.2" fill="#1f2937"/>
<circle cx="378.37" cy="263.67" r="3.2" fill="#1f2937"/>
<circle cx="427.77" cy="271.98" r="3.2" fill="#1f2937"/>
<circle cx="477.16" cy="280.92" r="3.2" fill="#1f2937"/>
<circle cx="526.56" cy="263.67" r="3.2" fill="#1f2937"/>
<circle cx="575.95" cy="298.54" r="3.2" fill="#1f2937"/>
<circle cx="625.35" cy="263.67" r="3.2" fill="#1f2937"/>
<circle cx="674.74" cy="263.67" r="3.2" fill="#1f2937"/>
<circle cx="724.14" cy="302.72" r="3.2" fill="#1f2937"/>
<circle cx="773.53" cy="263.67" r="3.2" fill="#1f2937"/>
<circle cx="822.93" cy="387.61" r="3.2" fill="#1f2937"/>
<circle cx="872.33" cy="277.33" r="3.2" fill="#1f2937"/>
<circle cx="921.72" cy="304.62" r="3.2" fill="#1f2937"/>
<circle cx="971.12" cy="280.70" r="3.2" fill="#1f2937"/>
<circle cx="1020.51" cy="263.67" r="3.2" fill="#1f2937"/>
<circle cx="1069.91" cy="278.91" r="3.2" fill="#1f2937"/>
<circle cx="1119.30" cy="416.12" r="3.2" fill="#1f2937"/>
<circle cx="82.00" cy="263.67" r="3.2" fill="#475569"/>
<circle cx="131.40" cy="201.93" r="3.2" fill="#475569"/>
<circle cx="180.79" cy="222.68" r="3.2" fill="#475569"/>
<circle cx="230.19" cy="263.67" r="3.2" fill="#475569"/>
<circle cx="279.58" cy="263.67" r="3.2" fill="#475569"/>
<circle cx="328.98" cy="218.63" r="3.2" fill="#475569"/>
<circle cx="378.37" cy="238.66" r="3.2" fill="#475569"/>
<circle cx="427.77" cy="238.73" r="3.2" fill="#475569"/>
<circle cx="477.16" cy="263.67" r="3.2" fill="#475569"/>
<circle cx="526.56" cy="234.92" r="3.2" fill="#475569"/>
<circle cx="575.95" cy="218.83" r="3.2" fill="#475569"/>
<circle cx="625.35" cy="139.25" r="3.2" fill="#475569"/>
<circle cx="674.74" cy="140.80" r="3.2" fill="#475569"/>
<circle cx="724.14" cy="263.67" r="3.2" fill="#475569"/>
<circle cx="773.53" cy="180.32" r="3.2" fill="#475569"/>
<circle cx="822.93" cy="263.67" r="3.2" fill="#475569"/>
<circle cx="872.33" cy="177.14" r="3.2" fill="#475569"/>
<circle cx="921.72" cy="263.67" r="3.2" fill="#475569"/>
<circle cx="971.12" cy="246.63" r="3.2" fill="#475569"/>
<circle cx="1020.51" cy="223.08" r="3.2" fill="#475569"/>
<circle cx="1069.91" cy="263.67" r="3.2" fill="#475569"/>
<circle cx="1119.30" cy="263.67" r="3.2" fill="#475569"/>
<rect x="82" y="561" width="18" height="12" fill="#64748b" opacity="0.22"/>
<text class="legend" x="108" y="571">Actual interval</text>
<rect x="252" y="561" width="18" height="12" fill="#14b8a6" opacity="0.28"/>
<text class="legend" x="278" y="571">Forecast interval</text>
<line x1="438" y1="566" x2="480" y2="566" stroke="#0f766e" stroke-width="3" stroke-dasharray="7 6"/>
<text class="legend" x="490" y="571">Forecast min</text>
<line x1="622" y1="566" x2="664" y2="566" stroke="#10b981" stroke-width="3"/>
<text class="legend" x="674" y="571">Forecast max</text>
<text class="note" x="1144" y="571" text-anchor="end">Generated from dataset/stock_market_19_24.csv</text>
</svg>
