<svg xmlns="http://www.w3.org/2000/svg" width="1180" height="610" viewBox="0 0 1180 610" role="img">
<title>CNN-LSTM Interval Forecast - IJC</title>
<desc>Last 4 weeks | history-calibrated baseline4 CNN-LSTM | MAE interval 1.15 pp</desc>
<rect width="1180" height="610" fill="#fbfbf8"/>
<style>text{font-family:Inter,Segoe UI,Arial,sans-serif}.title{font-size:28px;font-weight:760;fill:#111827}.sub{font-size:15px;fill:#4b5563}.axis{font-size:12px;fill:#6b7280}.legend{font-size:14px;fill:#374151}.note{font-size:12px;fill:#6b7280}.metric{font-size:13px;fill:#374151;font-weight:650}</style>
<text class="title" x="84" y="42">CNN-LSTM Interval Forecast - IJC</text>
<text class="sub" x="84" y="67">Last 4 weeks | history-calibrated baseline4 CNN-LSTM | MAE interval 1.15 pp</text>
<line x1="84" y1="522.00" x2="1140" y2="522.00" stroke="#e5e7eb" stroke-width="1"/>
<text class="axis" x="70" y="526.00" text-anchor="end">-3.3%</text>
<line x1="84" y1="437.20" x2="1140" y2="437.20" stroke="#e5e7eb" stroke-width="1"/>
<text class="axis" x="70" y="441.20" text-anchor="end">-2.1%</text>
<line x1="84" y1="352.40" x2="1140" y2="352.40" stroke="#e5e7eb" stroke-width="1"/>
<text class="axis" x="70" y="356.40" text-anchor="end">-0.8%</text>
<line x1="84" y1="267.60" x2="1140" y2="267.60" stroke="#e5e7eb" stroke-width="1"/>
<text class="axis" x="70" y="271.60" text-anchor="end">0.5%</text>
<line x1="84" y1="182.80" x2="1140" y2="182.80" stroke="#e5e7eb" stroke-width="1"/>
<text class="axis" x="70" y="186.80" text-anchor="end">1.8%</text>
<line x1="84" y1="98.00" x2="1140" y2="98.00" stroke="#e5e7eb" stroke-width="1"/>
<text class="axis" x="70" y="102.00" text-anchor="end">3.0%</text>
<line x1="84" y1="98" x2="84" y2="522" stroke="#9ca3af" stroke-width="1"/>
<line x1="84" y1="522" x2="1140" y2="522" stroke="#9ca3af" stroke-width="1"/>
<line x1="84" y1="299.88" x2="1140" y2="299.88" stroke="#374151" stroke-width="1.2" stroke-dasharray="4 6" opacity="0.55"/>
<line x1="84.00" y1="522" x2="84.00" y2="528" stroke="#9ca3af"/>
<text class="axis" x="84.00" y="548" text-anchor="middle">Dec 13</text>
<line x1="436.00" y1="522" x2="436.00" y2="528" stroke="#9ca3af"/>
<text class="axis" x="436.00" y="548" text-anchor="middle">Dec 20</text>
<line x1="788.00" y1="522" x2="788.00" y2="528" stroke="#9ca3af"/>
<text class="axis" x="788.00" y="548" text-anchor="middle">Dec 27</text>
<line x1="1140.00" y1="522" x2="1140.00" y2="528" stroke="#9ca3af"/>
<text class="axis" x="1140.00" y="548" text-anchor="middle">Dec 31</text>
<polygon points="84.00,299.88 436.00,177.68 788.00,181.33 1140.00,299.88 1140.00,299.88 788.00,347.53 436.00,299.88 84.00,442.32" fill="#64748b" opacity="0.18"/>
<polygon points="84.00,221.48 436.00,274.20 788.00,185.04 1140.00,183.33 1140.00,342.86 788.00,301.75 436.00,404.99 84.00,318.34" fill="#14b8a6" opacity="0.25"/>
<path d="M 84.00 442.32 L 436.00 299.88 L 788.00 347.53 L 1140.00 299.88" fill="none" stroke="#111827" stroke-width="2.9"/>
<path d="M 84.00 299.88 L 436.00 177.68 L 788.00 181.33 L 1140.00 299.88" fill="none" stroke="#64748b" stroke-width="2.9"/>
<path d="M 84.00 318.34 L 436.00 404.99 L 788.00 301.75 L 1140.00 342.86" fill="none" stroke="#0f766e" stroke-width="3.2" stroke-dasharray="7 6"/>
<path d="M 84.00 221.48 L 436.00 274.20 L 788.00 185.04 L 1140.00 183.33" fill="none" stroke="#10b981" stroke-width="3.2"/>
<circle cx="84.00" cy="442.32" r="3.2" fill="#111827"/>
<circle cx="436.00" cy="299.88" r="3.2" fill="#111827"/>
<circle cx="788.00" cy="347.53" r="3.2" fill="#111827"/>
<circle cx="1140.00" cy="299.88" r="3.2" fill="#111827"/>
<circle cx="84.00" cy="299.88" r="3.2" fill="#64748b"/>
<circle cx="436.00" cy="177.68" r="3.2" fill="#64748b"/>
<circle cx="788.00" cy="181.33" r="3.2" fill="#64748b"/>
<circle cx="1140.00" cy="299.88" r="3.2" fill="#64748b"/>
<circle cx="84.00" cy="318.34" r="3.2" fill="#0f766e"/>
<circle cx="436.00" cy="404.99" r="3.2" fill="#0f766e"/>
<circle cx="788.00" cy="301.75" r="3.2" fill="#0f766e"/>
<circle cx="1140.00" cy="342.86" r="3.2" fill="#0f766e"/>
<circle cx="84.00" cy="221.48" r="3.2" fill="#10b981"/>
<circle cx="436.00" cy="274.20" r="3.2" fill="#10b981"/>
<circle cx="788.00" cy="185.04" r="3.2" fill="#10b981"/>
<circle cx="1140.00" cy="183.33" r="3.2" fill="#10b981"/>
<text class="metric" x="1140" y="84" text-anchor="end">Actual avg range 1.62% | Direction match 25%</text>
<rect x="84" y="561" width="18" height="12" fill="#64748b" opacity="0.22"/>
<text class="legend" x="110" y="571">Actual interval</text>
<rect x="254" y="561" width="18" height="12" fill="#14b8a6" opacity="0.30"/>
<text class="legend" x="280" y="571">Forecast interval</text>
<line x1="470" y1="566" x2="512" y2="566" stroke="#0f766e" stroke-width="3" stroke-dasharray="7 6"/>
<text class="legend" x="522" y="571">Pred min</text>
<line x1="632" y1="566" x2="674" y2="566" stroke="#10b981" stroke-width="3"/>
<text class="legend" x="684" y="571">Pred max</text>
<text class="note" x="1140" y="571" text-anchor="end">epochs=80, dataset/stock_market_19_24.csv</text>
</svg>
